<svg width="149" height="17" viewBox="0 0 149 17" fill="none" xmlns="http://www.w3.org/2000/svg">
    <path d="M0.768693 16V0.937929H6.40621C7.6829 0.937929 8.78028 1.14593 9.69835 1.56193C10.6164 1.96359 11.3193 2.55172 11.807 3.32634C12.3091 4.08662 12.5601 5.01186 12.5601 6.10207C12.5601 7.16359 12.3091 8.08165 11.807 8.85628C11.3193 9.61655 10.6164 10.2047 9.69835 10.6207C8.78028 11.0367 7.6829 11.2447 6.40621 11.2447H1.6509L2.36097 10.4916V16H0.768693ZM2.36097 10.6207L1.6509 9.84607H6.36318C7.86938 9.84607 9.0098 9.52331 9.78442 8.87779C10.5734 8.21793 10.9679 7.29269 10.9679 6.10207C10.9679 4.8971 10.5734 3.96469 9.78442 3.30483C9.0098 2.64496 7.86938 2.31503 6.36318 2.31503H1.6509L2.36097 1.56193V10.6207ZM20.222 16.1076C19.1318 16.1076 18.1491 15.8637 17.2741 15.376C16.4134 14.8739 15.732 14.1926 15.23 13.3319C14.7279 12.4568 14.4769 11.4599 14.4769 10.341C14.4769 9.20772 14.7279 8.21076 15.23 7.35007C15.732 6.48938 16.4134 5.81517 17.2741 5.32745C18.1348 4.83972 19.1174 4.59586 20.222 4.59586C21.3409 4.59586 22.3307 4.83972 23.1913 5.32745C24.0664 5.81517 24.7478 6.48938 25.2355 7.35007C25.7375 8.21076 25.9886 9.20772 25.9886 10.341C25.9886 11.4599 25.7375 12.4568 25.2355 13.3319C24.7478 14.1926 24.0664 14.8739 23.1913 15.376C22.3163 15.8637 21.3265 16.1076 20.222 16.1076ZM20.222 14.752C21.0396 14.752 21.764 14.5727 22.3952 14.2141C23.0264 13.8411 23.5213 13.3247 23.8799 12.6648C24.2529 11.9906 24.4393 11.216 24.4393 10.341C24.4393 9.45159 24.2529 8.67696 23.8799 8.0171C23.5213 7.35724 23.0264 6.848 22.3952 6.48938C21.764 6.11641 21.0468 5.92993 20.2435 5.92993C19.4402 5.92993 18.7229 6.11641 18.0918 6.48938C17.4606 6.848 16.9585 7.35724 16.5855 8.0171C16.2126 8.67696 16.0261 9.45159 16.0261 10.341C16.0261 11.216 16.2126 11.9906 16.5855 12.6648C16.9585 13.3247 17.4606 13.8411 18.0918 14.2141C18.7229 14.5727 19.433 14.752 20.222 14.752ZM34.8742 4.59586C35.7923 4.59586 36.5956 4.77517 37.2841 5.13379C37.987 5.47807 38.5321 6.00883 38.9194 6.72607C39.3211 7.44331 39.5219 8.34703 39.5219 9.43724V16H37.9942V9.58786C37.9942 8.39724 37.693 7.50069 37.0905 6.89821C36.5023 6.28138 35.6703 5.97296 34.5945 5.97296C33.7912 5.97296 33.0883 6.13793 32.4858 6.46786C31.8976 6.78345 31.4386 7.24965 31.1087 7.86648C30.7931 8.46896 30.6353 9.20055 30.6353 10.0612V16H29.1076V4.70345H30.5707V7.80193L30.3341 7.22096C30.6927 6.40331 31.2665 5.76496 32.0554 5.30593C32.8444 4.83255 33.784 4.59586 34.8742 4.59586ZM47.2204 16.1076C46.1589 16.1076 45.3412 15.8207 44.7674 15.2469C44.1936 14.6731 43.9067 13.8626 43.9067 12.8154V2.20745H45.4345V12.7294C45.4345 13.3892 45.5994 13.8985 45.9293 14.2571C46.2736 14.6157 46.7613 14.795 47.3925 14.795C48.0667 14.795 48.6262 14.6014 49.0709 14.2141L49.6088 15.3114C49.3076 15.584 48.9418 15.7848 48.5114 15.9139C48.0954 16.043 47.6651 16.1076 47.2204 16.1076ZM41.8841 5.97296V4.70345H48.8772V5.97296H41.8841ZM56.5953 16.1076C55.5051 16.1076 54.5225 15.8637 53.6475 15.376C52.7868 14.8739 52.1054 14.1926 51.6033 13.3319C51.1013 12.4568 50.8502 11.4599 50.8502 10.341C50.8502 9.20772 51.1013 8.21076 51.6033 7.35007C52.1054 6.48938 52.7868 5.81517 53.6475 5.32745C54.5082 4.83972 55.4908 4.59586 56.5953 4.59586C57.7142 4.59586 58.704 4.83972 59.5647 5.32745C60.4398 5.81517 61.1211 6.48938 61.6089 7.35007C62.1109 8.21076 62.362 9.20772 62.362 10.341C62.362 11.4599 62.1109 12.4568 61.6089 13.3319C61.1211 14.1926 60.4398 14.8739 59.5647 15.376C58.6897 15.8637 57.6999 16.1076 56.5953 16.1076ZM56.5953 14.752C57.413 14.752 58.1374 14.5727 58.7686 14.2141C59.3998 13.8411 59.8947 13.3247 60.2533 12.6648C60.6262 11.9906 60.8127 11.216 60.8127 10.341C60.8127 9.45159 60.6262 8.67696 60.2533 8.0171C59.8947 7.35724 59.3998 6.848 58.7686 6.48938C58.1374 6.11641 57.4202 5.92993 56.6169 5.92993C55.8136 5.92993 55.0963 6.11641 54.4651 6.48938C53.834 6.848 53.3319 7.35724 52.9589 8.0171C52.586 8.67696 52.3995 9.45159 52.3995 10.341C52.3995 11.216 52.586 11.9906 52.9589 12.6648C53.3319 13.3247 53.834 13.8411 54.4651 14.2141C55.0963 14.5727 55.8064 14.752 56.5953 14.752ZM70.4884 16V0.937929H74.7488V16H70.4884ZM77.5863 16V0.0342052H81.6745V16H77.5863ZM89.2373 16.1937C88.2906 16.1937 87.4371 16.0072 86.6768 15.6342C85.9309 15.2612 85.3427 14.6803 84.9124 13.8913C84.4964 13.088 84.2884 12.0767 84.2884 10.8574V4.33765H88.3766V10.1903C88.3766 11.0941 88.5416 11.7396 88.8715 12.1269C89.2158 12.5142 89.6964 12.7079 90.3132 12.7079C90.7149 12.7079 91.0806 12.6146 91.4106 12.4281C91.7405 12.2417 92.0059 11.9476 92.2067 11.5459C92.4075 11.1299 92.508 10.5992 92.508 9.95365V4.33765H96.5962V16H92.7016V12.7079L93.4547 13.6331C93.0531 14.4938 92.4721 15.1393 91.7118 15.5697C90.9515 15.9857 90.1267 16.1937 89.2373 16.1937ZM114.421 4.144C115.324 4.144 116.128 4.33048 116.831 4.70345C117.548 5.06207 118.107 5.62152 118.509 6.38179C118.925 7.14207 119.133 8.12469 119.133 9.32965V16H115.045V9.99669C115.045 9.16469 114.887 8.56221 114.571 8.18924C114.256 7.80193 113.825 7.60828 113.28 7.60828C112.893 7.60828 112.542 7.70152 112.226 7.888C111.91 8.07448 111.667 8.36138 111.494 8.74869C111.322 9.12165 111.236 9.60938 111.236 10.2119V16H107.148V9.99669C107.148 9.16469 106.99 8.56221 106.675 8.18924C106.373 7.80193 105.943 7.60828 105.384 7.60828C104.982 7.60828 104.623 7.70152 104.308 7.888C104.006 8.07448 103.763 8.36138 103.576 8.74869C103.404 9.12165 103.318 9.60938 103.318 10.2119V16H99.2296V4.33765H103.124V7.58676L102.35 6.66152C102.78 5.82952 103.368 5.20552 104.114 4.78952C104.86 4.35917 105.692 4.144 106.61 4.144C107.657 4.144 108.575 4.41655 109.364 4.96165C110.168 5.49241 110.705 6.32441 110.978 7.45765L109.644 7.17793C110.06 6.23117 110.684 5.49241 111.516 4.96165C112.362 4.41655 113.331 4.144 114.421 4.144ZM127.971 16.1937C126.594 16.1937 125.389 15.9354 124.357 15.419C123.338 14.8883 122.542 14.171 121.968 13.2673C121.409 12.3492 121.129 11.3092 121.129 10.1473C121.129 8.98538 121.401 7.95255 121.947 7.04883C122.506 6.13076 123.273 5.42069 124.249 4.91862C125.224 4.40221 126.322 4.144 127.541 4.144C128.689 4.144 129.736 4.38069 130.683 4.85407C131.629 5.3131 132.382 5.99448 132.942 6.89821C133.501 7.80193 133.781 8.89931 133.781 10.1903C133.781 10.3338 133.774 10.4988 133.76 10.6852C133.745 10.8717 133.731 11.0439 133.717 11.2017H124.486V9.04993H131.543L129.994 9.65241C130.008 9.12165 129.908 8.66262 129.693 8.27531C129.492 7.888 129.205 7.58676 128.832 7.37159C128.473 7.15641 128.05 7.04883 127.563 7.04883C127.075 7.04883 126.645 7.15641 126.272 7.37159C125.913 7.58676 125.633 7.89517 125.432 8.29683C125.232 8.68414 125.131 9.14317 125.131 9.67393V10.2979C125.131 10.8717 125.246 11.3666 125.475 11.7826C125.719 12.1986 126.064 12.5214 126.508 12.7509C126.953 12.9661 127.484 13.0737 128.101 13.0737C128.674 13.0737 129.162 12.9948 129.564 12.837C129.98 12.6648 130.389 12.4066 130.79 12.0623L132.942 14.3001C132.382 14.917 131.694 15.3903 130.876 15.7203C130.059 16.0359 129.09 16.1937 127.971 16.1937ZM141.519 16.1937C140.242 16.1937 139.109 15.9354 138.119 15.419C137.129 14.9026 136.347 14.1926 135.774 13.2888C135.214 12.3708 134.934 11.3236 134.934 10.1473C134.934 8.97103 135.214 7.93103 135.774 7.02731C136.347 6.12359 137.129 5.42069 138.119 4.91862C139.109 4.40221 140.242 4.144 141.519 4.144C142.795 4.144 143.929 4.40221 144.918 4.91862C145.923 5.42069 146.704 6.12359 147.264 7.02731C147.823 7.93103 148.103 8.97103 148.103 10.1473C148.103 11.3236 147.823 12.3708 147.264 13.2888C146.704 14.1926 145.923 14.9026 144.918 15.419C143.929 15.9354 142.795 16.1937 141.519 16.1937ZM141.519 12.9446C141.992 12.9446 142.408 12.837 142.767 12.6218C143.14 12.4066 143.434 12.091 143.649 11.675C143.864 11.2447 143.972 10.7354 143.972 10.1473C143.972 9.55917 143.864 9.06428 143.649 8.66262C143.434 8.24662 143.14 7.93103 142.767 7.71586C142.408 7.50069 141.992 7.3931 141.519 7.3931C141.06 7.3931 140.644 7.50069 140.271 7.71586C139.912 7.93103 139.618 8.24662 139.388 8.66262C139.173 9.06428 139.066 9.55917 139.066 10.1473C139.066 10.7354 139.173 11.2447 139.388 11.675C139.618 12.091 139.912 12.4066 140.271 12.6218C140.644 12.837 141.06 12.9446 141.519 12.9446Z" fill="#CFCFCF"/>
    </svg>
    